# xmcd
#
# Track frame offsets: 
#        150
#        4426
#        17376
#        24353
#        27868
#        37382
#        44661
#        57383
#        64444
#        73072
#        81807
#        100176
#        110857
#        114473
#        127182
#        135458
#        144398
#        154155
#        171863
#        176967
#        188615
#
# Disc length: 2680 seconds
#
# Revision: 1
# Processed by: cddbd v1.5.2PL0 Copyright (c) Steve Scherf et al.
# Submitted via: ExactAudioCopy v1.0b1
#
DISCID=350a7615
DTITLE=Johnny Cash - The Holy Land
DYEAR=1999
DGENRE=Country
TTITLE0=Prologue
TTITLE1=Land Of Israel
TTITLE2=A Mother's Love
TTITLE3=This Is Nazareth
TTITLE4=Nazarene
TTITLE5=Town Of Cana
TTITLE6=He Turned The Water Into Wine
TTITLE7=My Wife June At Sea Of Galilee
TTITLE8=Beautiful Words
TTITLE9=Our Guide Jacob At Mount Tabor
TTITLE10=The Ten Commandments
TTITLE11=Daddy Sang Bass
TTITLE12=At The Wailing Wall
TTITLE13=Come To The Wailing Wall
TTITLE14=In Bethlehem
TTITLE15=In Garden Of Gethsemane
TTITLE16=The Fourth Man
TTITLE17=On The Via Dolorosa
TTITLE18=Church Of The Holy Sepulchre
TTITLE19=At Calvary
TTITLE20=God Is Not Dead
EXTD=(c)1999 Sony Music Entertainment/Harmony Records USA\nupc 0885611
EXTD=78628
EXTT0=
EXTT1=
EXTT2=
EXTT3=
EXTT4=
EXTT5=
EXTT6=
EXTT7=
EXTT8=
EXTT9=
EXTT10=
EXTT11=
EXTT12=
EXTT13=
EXTT14=
EXTT15=
EXTT16=
EXTT17=
EXTT18=
EXTT19=
EXTT20=
PLAYORDER=
